#N canvas 107 15 510 615 10;
#X obj 72 270 mul~;
#X obj 73 453 dac~;
#X obj 27 178 osc~ 220;
#X obj 71 205 *~ 0.2;
#X obj 192 221 *~ 0.2;
#X obj 163 193 osc~ 222;
#X obj 27 15 vsl 15 128 50 2000 0 0 empty empty empty 0 -8 0 8 -262144
-1 -1 6300 1;
#X floatatom 27 156 5 0 0 0 - - -;
#X obj 163 28 vsl 15 128 50 2000 0 0 empty empty empty 0 -8 0 8 -262144
-1 -1 7500 1;
#X floatatom 163 171 5 0 0 0 - - -;
#X obj 108 17 vsl 15 128 0 1 0 0 empty empty empty 0 -8 0 8 -262144
-1 -1 3700 1;
#X floatatom 108 180 5 0 0 0 - - -;
#X obj 229 28 vsl 15 128 0 1 0 0 empty empty empty 0 -8 0 8 -262144
-1 -1 6900 1;
#X floatatom 229 194 5 0 0 0 - - -;
#X obj 87 299 rfft~;
#X obj 87 431 tabwrite~ rfft;
#N canvas 0 0 450 300 graph2 0;
#X array rfft 256 float 0;
#X coords 0 5 31 -5 200 200 1;
#X restore 277 202 graph;
#X obj 103 399 bng 15 250 50 0 empty empty empty 0 -6 0 8 -262144 -1
-1;
#X obj 103 347 tgl 15 0 empty empty empty 0 -6 0 8 -262144 -1 -1 0
1;
#X obj 103 371 metro 371.2;
#X obj 373 140 block~ 256 2;
#X obj 87 324 /~ 4;
#X connect 0 0 1 0;
#X connect 0 0 14 0;
#X connect 2 0 3 0;
#X connect 3 0 0 0;
#X connect 4 0 0 1;
#X connect 5 0 4 0;
#X connect 6 0 7 0;
#X connect 7 0 2 0;
#X connect 8 0 9 0;
#X connect 9 0 5 0;
#X connect 10 0 11 0;
#X connect 11 0 3 1;
#X connect 12 0 13 0;
#X connect 13 0 4 1;
#X connect 14 0 21 0;
#X connect 17 0 15 0;
#X connect 18 0 19 0;
#X connect 19 0 17 0;
#X connect 21 0 15 0;
