#N canvas 32 11 876 570 10;
#X obj 18 176 ltas~;
#N canvas 0 0 450 300 graph2 0;
#X array fft 32 float 0;
#X coords 0 1 31 0 200 140 1;
#X restore 341 312 graph;
#X obj 74 175 *~;
#X obj 104 173 *~;
#X obj 90 197 +~;
#X obj 90 219 sqrt~;
#X obj 92 462 tabwrite~ fft;
#X obj 19 488 tabwrite~ ltas;
#N canvas 0 0 450 300 graph3 0;
#X array ltas 32 float 0;
#X coords 0 1 31 0 200 140 1;
#X restore 547 312 graph;
#X obj 145 441 metro 200;
#X msg 706 17 \; pd dsp 1 \; graph 1 \;;
#X msg 706 65 \; pd dsp 0 \; graph 0 \;;
#X obj 145 419 r graph;
#X obj 39 143 rfft~;
#X floatatom 38 73 10 0 0 0 - - -;
#X obj 175 271 block~;
#X msg 175 250 set \$1 1 1;
#X msg 175 186 4096;
#X msg 182 228 64;
#X obj 91 429 /~ 64;
#X obj 19 429 /~ 64;
#X floatatom 145 293 5 0 0 0 - - -;
#X obj 145 271 / 2;
#N canvas 0 0 450 300 init 0;
#X obj 19 14 loadbang;
#X msg 19 45 \; hanning cosinesum 64 0.5 -0.5 \; fft normalize \; ltas
normalize \; init_oscfrq 1000 \; init_radio 0 \;;
#X connect 0 0 1 0;
#X restore 19 511 pd init;
#X obj 182 207 loadbang;
#X msg 174 165 512;
#X floatatom 48 199 5 0 0 0 - - -;
#X obj 18 143 bng 15 250 50 0 empty empty empty 0 -6 0 8 -262144 -1
-1;
#X floatatom 88 145 5 0 0 0 - - -;
#X obj 91 124 hsl 128 15 100 6000 0 0 empty empty averaging_time -2
-6 0 8 -262144 -1 -1 0 1;
#X text -37 138 bang to;
#X text -38 151 get the;
#X text -37 162 current;
#X text -45 172 time avg;
#X text -33 198 (right;
#X text -39 213 outlet);
#X text -36 183 approx.;
#X text 12 197 --->;
#X obj 705 113 table hanning;
#X msg 145 315 \; fft resize \$1 \; ltas resize \$1 \; hanning resize
\$1 \; fft normalize \; ltas normalize \;;
#X obj 38 27 vsl 32 38 50 22050 0 0 empty init_oscfrq empty 0 -8 0
8 -44926 -1 -1 160 1;
#N canvas 443 256 413 437 source---------------- 0;
#X obj 211 391 outlet~;
#X obj 139 28 inlet;
#X obj 266 28 inlet;
#X obj 139 309 *~;
#X obj 156 288 sig~;
#X obj 47 83 sel 0 1;
#X msg 156 267 0;
#X msg 187 267 1;
#X obj 270 309 *~;
#X obj 287 288 sig~;
#X msg 287 267 0;
#X msg 318 267 1;
#X obj 139 82 osc~;
#X obj 138 338 throw~ sout;
#X obj 270 336 throw~ sout;
#X obj 211 365 catch~ sout;
#X symbolatom 296 170 10 0 0 0 - - -;
#X msg 296 192 open \$1;
#X msg 215 189 0;
#X msg 246 189 1;
#X obj 269 227 readsf~;
#X obj 246 145 t b b;
#X obj 266 92 openpanel;
#X obj 266 121 t b s;
#X obj 266 54 sel 0 1 2;
#X msg 47 56 0;
#X msg 82 56 1;
#X connect 1 0 12 0;
#X connect 1 0 25 0;
#X connect 2 0 24 0;
#X connect 2 0 26 0;
#X connect 3 0 13 0;
#X connect 4 0 3 1;
#X connect 5 0 7 0;
#X connect 5 0 10 0;
#X connect 5 0 18 0;
#X connect 5 1 6 0;
#X connect 5 1 11 0;
#X connect 6 0 4 0;
#X connect 7 0 4 0;
#X connect 8 0 14 0;
#X connect 9 0 8 1;
#X connect 10 0 9 0;
#X connect 11 0 9 0;
#X connect 12 0 3 0;
#X connect 15 0 0 0;
#X connect 16 0 17 0;
#X connect 17 0 20 0;
#X connect 18 0 20 0;
#X connect 19 0 20 0;
#X connect 20 0 8 0;
#X connect 20 1 21 0;
#X connect 21 0 19 0;
#X connect 21 1 16 0;
#X connect 22 0 23 0;
#X connect 23 0 21 0;
#X connect 23 1 16 0;
#X connect 24 0 18 0;
#X connect 24 1 23 0;
#X connect 24 2 22 0;
#X connect 25 0 5 0;
#X connect 26 0 5 0;
#X restore 38 92 pd source----------------;
#X obj 208 58 hradio 30 1 0 3 empty init_radio empty 0 -6 0 8 -241291
-1 -1 0;
#X text 199 4 play external file;
#X text -3 6 play a cos wave;
#X text 241 37 play;
#X text 270 37 | file;
#X text 270 25 | select a new;
#X text 198 37 stop |;
#X text 235 162 comment;
#X connect 0 0 20 0;
#X connect 0 1 26 0;
#X connect 2 0 4 0;
#X connect 3 0 4 1;
#X connect 4 0 5 0;
#X connect 5 0 19 0;
#X connect 9 0 7 0;
#X connect 9 0 6 0;
#X connect 12 0 9 0;
#X connect 13 0 2 0;
#X connect 13 0 2 1;
#X connect 13 0 0 0;
#X connect 13 1 3 0;
#X connect 13 1 3 1;
#X connect 13 1 0 1;
#X connect 14 0 41 0;
#X connect 16 0 15 0;
#X connect 17 0 16 0;
#X connect 17 0 22 0;
#X connect 18 0 16 0;
#X connect 18 0 22 0;
#X connect 19 0 6 0;
#X connect 20 0 7 0;
#X connect 21 0 19 1;
#X connect 21 0 20 1;
#X connect 21 0 39 0;
#X connect 22 0 21 0;
#X connect 24 0 18 0;
#X connect 25 0 22 0;
#X connect 27 0 0 0;
#X connect 28 0 0 2;
#X connect 29 0 28 0;
#X connect 40 0 14 0;
#X connect 41 0 13 0;
#X connect 42 0 41 1;
