#N canvas 103 70 702 567 10;
#X obj 128 135 integrator;
#X obj 148 107 tabwrite val;
#N canvas 0 0 256 217 indexer 0;
#X obj 50 22 inlet;
#X obj 50 155 outlet;
#X obj 113 155 outlet;
#X obj 113 95 +;
#X obj 149 95 f;
#X obj 113 118 % 256;
#X msg 113 72 1;
#X connect 0 0 1 0;
#X connect 0 0 6 0;
#X connect 3 0 4 0;
#X connect 3 0 5 0;
#X connect 4 0 3 1;
#X connect 5 0 2 0;
#X connect 6 0 3 0;
#X restore 148 83 pd indexer;
#N canvas 0 0 450 300 graph1 0;
#X array val 256 float 0;
#X coords 0 100 255 -100 200 140 1;
#X restore 432 55 graph;
#X floatatom 128 51 5 0 0 0 - - -;
#X floatatom 193 158 10 0 0 0 - - -;
#X floatatom 51 159 10 0 0 0 - - -;
#N canvas 0 0 256 217 indexer 0;
#X obj 50 22 inlet;
#X obj 50 155 outlet;
#X obj 113 155 outlet;
#X obj 113 95 +;
#X obj 149 95 f;
#X obj 113 118 % 256;
#X msg 113 72 1;
#X connect 0 0 1 0;
#X connect 0 0 6 0;
#X connect 3 0 4 0;
#X connect 3 0 5 0;
#X connect 4 0 3 1;
#X connect 5 0 2 0;
#X connect 6 0 3 0;
#X restore 151 179 pd indexer;
#N canvas 0 0 450 300 graph1 0;
#X array integ_val 256 float 0;
#X coords 0 1000 255 -1000 200 140 1;
#X restore 430 220 graph;
#N canvas 0 0 450 300 init 0;
#X obj 69 39 inlet;
#X obj 131 40 loadbang;
#X msg 69 71 \; val const 0 \; integ_val const 0;
#X connect 0 0 2 0;
#X connect 1 0 2 0;
#X restore 24 524 pd init;
#X obj 24 18 bng 15 250 50 0 empty empty empty 0 -6 0 8 -262144 -1
-1;
#X msg 51 100 reset;
#X obj 151 203 tabwrite integ_val;
#X obj 236 40 bng 15 250 50 0 empty empty empty 0 -6 0 8 -262144 -1
-1;
#X connect 0 0 6 0;
#X connect 0 0 7 0;
#X connect 0 1 5 0;
#X connect 2 0 1 0;
#X connect 2 1 1 1;
#X connect 4 0 2 0;
#X connect 4 0 0 0;
#X connect 7 0 12 0;
#X connect 7 1 12 1;
#X connect 10 0 9 0;
#X connect 10 0 11 0;
#X connect 11 0 0 0;
#X connect 13 0 0 0;
